<svg width="133" height="40" viewBox="0 0 133 40" fill="none" xmlns="http://www.w3.org/2000/svg">
<path d="M7.04 32V14.464L0.64 14.784V9.344H19.36V14.784L12.8 14.464V26.88L13.152 30.08L12.8 32H7.04ZM23.5175 32.32C22.6002 32.32 21.7468 32.192 20.9575 31.936C20.1895 31.6587 19.5708 31.1893 19.1015 30.528C18.6322 29.8667 18.3975 28.9493 18.3975 27.776C18.3975 26.7093 18.6642 25.824 19.1975 25.12C19.7308 24.416 20.4562 23.8933 21.3735 23.552C22.2908 23.2107 23.3255 23.04 24.4775 23.04C25.5868 23.04 26.4188 23.168 26.9735 23.424C27.5282 23.6587 28.0082 23.904 28.4135 24.16L28.6375 23.968C28.6375 23.328 28.5842 22.7947 28.4775 22.368C28.3708 21.9413 28.1255 21.6213 27.7415 21.408C27.3575 21.1733 26.7602 21.056 25.9495 21.056C25.1602 21.056 24.3175 21.1307 23.4215 21.28C22.5468 21.408 21.7362 21.5787 20.9895 21.792C20.2642 21.984 19.7202 22.176 19.3575 22.368V17.568C20.0188 17.3333 20.9575 17.12 22.1735 16.928C23.4108 16.7147 24.9255 16.608 26.7175 16.608C28.6375 16.608 30.1522 16.8533 31.2615 17.344C32.3922 17.8133 33.2028 18.5067 33.6935 19.424C34.1842 20.32 34.4295 21.3973 34.4295 22.656V26.912L35.0695 30.144L34.4295 32.032H28.9575V30.464L28.6375 30.304C28.4668 30.4747 28.1682 30.72 27.7415 31.04C27.3148 31.36 26.7495 31.6587 26.0455 31.936C25.3415 32.192 24.4988 32.32 23.5175 32.32ZM26.2375 28.128C26.8135 28.128 27.3042 28.0747 27.7095 27.968C28.1362 27.8613 28.4455 27.7653 28.6375 27.68V27.072C28.6375 26.7947 28.4348 26.528 28.0295 26.272C27.6455 26.016 27.0375 25.888 26.2055 25.888C25.0535 25.888 24.4775 26.2933 24.4775 27.104C24.4775 27.4453 24.6055 27.7013 24.8615 27.872C25.1175 28.0427 25.5762 28.128 26.2375 28.128ZM36.6638 32L38.9678 26.912L40.5358 24.384L36.9838 18.848V16.896H42.7438L44.5038 22.528H45.1438L46.9038 16.896H52.9838L50.7118 21.984L49.1758 24.384L52.6318 30.08V32H46.9038L45.1438 27.008H44.5038L42.7438 32H36.6638ZM55.8725 32V14.496L55.2325 11.296L55.8725 9.344H65.4085C66.9445 9.344 68.4165 9.49333 69.8245 9.792C71.2538 10.0693 72.5232 10.6027 73.6325 11.392C74.7632 12.1813 75.6485 13.312 76.2885 14.784C76.9498 16.256 77.2805 18.1653 77.2805 20.512C77.2805 22.8587 76.9498 24.7893 76.2885 26.304C75.6272 27.7973 74.7312 28.96 73.6005 29.792C72.4698 30.624 71.1898 31.2 69.7605 31.52C68.3525 31.84 66.9018 32 65.4085 32H55.8725ZM61.6965 26.88H65.4085C67.2858 26.88 68.7258 26.3893 69.7285 25.408C70.7312 24.4053 71.2325 22.7733 71.2325 20.512C71.2325 18.2507 70.7205 16.6827 69.6965 15.808C68.6938 14.912 67.2645 14.464 65.4085 14.464H61.6965V26.88ZM90.6905 32.32C89.3252 32.32 87.9918 32.16 86.6905 31.84C85.4105 31.4987 84.2478 30.9013 83.2025 30.048C82.1785 29.1947 81.3572 28.0107 80.7385 26.496C80.1412 24.9813 79.8425 23.04 79.8425 20.672C79.8425 18.304 80.1412 16.3627 80.7385 14.848C81.3572 13.3333 82.1785 12.1493 83.2025 11.296C84.2478 10.4427 85.4105 9.856 86.6905 9.536C87.9918 9.19467 89.3252 9.024 90.6905 9.024C92.0558 9.024 93.3785 9.19467 94.6585 9.536C95.9598 9.87733 97.1225 10.4747 98.1465 11.328C99.1918 12.1813 100.013 13.3653 100.611 14.88C101.229 16.3947 101.539 18.3253 101.539 20.672C101.539 23.0187 101.229 24.9493 100.611 26.464C100.013 27.9787 99.1918 29.1627 98.1465 30.016C97.1225 30.8693 95.9598 31.4667 94.6585 31.808C93.3785 32.1493 92.0558 32.32 90.6905 32.32ZM90.6905 26.88C92.2692 26.88 93.4638 26.4107 94.2745 25.472C95.0852 24.5333 95.4905 22.9333 95.4905 20.672C95.4905 18.4107 95.0852 16.8107 94.2745 15.872C93.4638 14.9333 92.2692 14.464 90.6905 14.464C89.1332 14.464 87.9492 14.944 87.1385 15.904C86.3278 16.864 85.9225 18.4533 85.9225 20.672C85.9225 22.8907 86.3278 24.48 87.1385 25.44C87.9492 26.4 89.1332 26.88 90.6905 26.88ZM105.373 32V14.496L104.733 11.296L105.405 9.376H111.517L117.789 21.536H118.429L123.613 9.376H129.981L130.301 11.296L129.981 14.368V32H124.189L124.285 29.28V20.352H123.933L122.653 23.424L119.773 28.8H115.933L111.517 20.352H111.197V22.944L111.517 32H105.373Z" fill="white"/>
</svg>
